<svg id="Ebene_1" data-name="Ebene 1" xmlns="http://www.w3.org/2000/svg" viewBox="0 0 15.9 18"><title>Zeichenfläche 18</title><path d="M13,4.68A7.69,7.69,0,0,0,8.56,2.62s0,0,0-.05V1.72h1.48V0H5.43V1.72H6.85v.85a.2.2,0,0,0,0,.05,7.79,7.79,0,0,0-6,11.28,6.74,6.74,0,0,0,3.32,3.3,7.78,7.78,0,0,0,11.28-6.91,7.68,7.68,0,0,0-1.36-4.37A16,16,0,0,0,13,4.68ZM7.71,16.28A6,6,0,1,1,10.74,5,5,5,0,0,1,13,7.26a6.06,6.06,0,0,1-5.25,9Zm0,0"/><path d="M14,3.08l-.75.71.59.62-.37.35,0,0h0c.25.26.49.53.72.8h0l0-.05,0,0,.37-.35.61.65.75-.71Z"/><path d="M8.57,9.43V7.71a.86.86,0,0,0-1.72,0v2.57a.86.86,0,0,0,.86.85h2.57a.86.86,0,0,0,0-1.71Zm0,0"/><path d="M8.57,9.43V7.71a.86.86,0,0,0-1.72,0v2.57a.86.86,0,0,0,.86.85h2.57a.86.86,0,0,0,0-1.71Zm0,0"/><path d="M11.65,6.32l-.42.42h0A5.11,5.11,0,0,0,8.06,5.25h0a6.09,6.09,0,0,0-1,0h0A5.12,5.12,0,0,0,2.5,9.86v1A5.13,5.13,0,0,0,12.72,10a.48.48,0,0,0-1,.06,4.17,4.17,0,1,1-1.21-2.7h0l-.42.42a.25.25,0,0,0,.17.42h1.51A.25.25,0,0,0,12.08,8V6.5A.25.25,0,0,0,11.65,6.32Z"/></svg>