<?xml version="1.0" encoding="UTF-8" standalone="no"?>
<!-- Created with Inkscape (http://www.inkscape.org/) -->

<svg
   xmlns:dc="http://purl.org/dc/elements/1.1/"
   xmlns:cc="http://creativecommons.org/ns#"
   xmlns:rdf="http://www.w3.org/1999/02/22-rdf-syntax-ns#"
   xmlns:svg="http://www.w3.org/2000/svg"
   xmlns="http://www.w3.org/2000/svg"
   xmlns:sodipodi="http://sodipodi.sourceforge.net/DTD/sodipodi-0.dtd"
   xmlns:inkscape="http://www.inkscape.org/namespaces/inkscape"
   version="1.1"
   id="svg2"
   width="793.59998"
   height="850.1333"
   viewBox="0 0 793.59998 850.1333"
   sodipodi:docname="fingerprint_small.svg"
   inkscape:version="0.92.2 (unknown)">
  <metadata
     id="metadata8">
    <rdf:RDF>
      <cc:Work
         rdf:about="">
        <dc:format>image/svg+xml</dc:format>
        <dc:type
           rdf:resource="http://purl.org/dc/dcmitype/StillImage" />
        <dc:title></dc:title>
      </cc:Work>
    </rdf:RDF>
  </metadata>
  <defs
     id="defs6" />
  <sodipodi:namedview
     pagecolor="#ffffff"
     bordercolor="#666666"
     borderopacity="1"
     objecttolerance="10"
     gridtolerance="10"
     guidetolerance="10"
     inkscape:pageopacity="0"
     inkscape:pageshadow="2"
     inkscape:window-width="1920"
     inkscape:window-height="1020"
     id="namedview4"
     showgrid="false"
     inkscape:zoom="0.39259067"
     inkscape:cx="1179.0157"
     inkscape:cy="76.653746"
     inkscape:window-x="0"
     inkscape:window-y="0"
     inkscape:window-maximized="1"
     inkscape:current-layer="svg2" />
  <path
     style="fill:#000000;stroke-width:1.1346252"
     d="m 379.14787,797.54169 c 0,-0.48596 3.96718,-2.82268 8.81595,-5.19272 50.97561,-24.91647 118.53743,-63.34152 160.34408,-91.19396 54.3945,-36.2387 77.32567,-58.70277 93.05606,-91.16049 6.54458,-13.5039 12.06872,-29.57454 14.42321,-41.95947 1.00928,-5.30902 1.48208,-18.05495 1.46608,-39.52407 -0.0266,-35.53626 -1.19509,-45.77253 -7.98167,-69.91344 C 632.96215,400.58211 602.50471,351.65771 562.86089,319.79423 518.44746,284.09722 434.3288,247.99854 367.46392,235.94159 c -33.46852,-6.03499 -84.25027,-4.67087 -105.47246,2.83325 -27.91636,9.87115 -56.68905,39.82668 -94.2739,98.14945 -23.40848,36.32441 -37.85268,62.3167 -68.343399,122.98366 C 87.341357,483.84944 79.412004,498.41372 78.762145,497.76718 77.79908,496.80905 76.65632,487.029 74.908191,464.78401 l -0.650126,-8.2729 13.181854,-25.58758 c 30.010721,-58.25452 62.038861,-111.90219 86.204731,-144.39436 39.31833,-52.86542 69.21039,-72.70814 115.6374,-76.76158 17.81667,-1.55553 59.33301,-0.5251 73.94023,1.83519 76.15209,12.30495 166.97481,51.06482 218.97681,93.45145 11.84678,9.65627 27.55917,26.18794 37.24247,39.18439 26.63868,35.75318 49.1096,85.68165 57.66022,128.1162 5.48382,27.21485 6.12317,78.37583 1.26043,100.85894 -7.29933,33.74861 -23.23766,66.40324 -43.36161,88.8397 -28.51473,31.79148 -92.25052,74.47094 -189.30653,126.76556 -5.63083,3.03393 -12.54139,5.94659 -15.35681,6.47256 -13.59127,2.53909 -51.18939,4.19179 -51.18939,2.25011 z m -95.55352,-2.60502 c -19.53516,-2.38779 -29.74894,-4.15272 -30.95065,-5.34828 -0.7247,-0.72098 -1.0958,-1.52334 -0.82468,-1.78301 0.27111,-0.25968 9.95422,-4.39421 21.51804,-9.18785 79.42054,-32.92281 161.47022,-73.70534 213.87729,-106.30699 41.81044,-26.00964 74.86024,-53.09648 86.33345,-70.75686 9.11663,-14.03295 13.34931,-36.33182 12.25355,-64.55483 -2.28389,-58.82479 -28.10038,-115.46854 -72.98963,-160.14599 -43.42718,-43.22228 -89.81935,-62.7994 -138.42209,-58.41298 -34.65398,3.12754 -56.64534,7.14019 -75.43846,13.76489 -49.6815,17.51304 -88.42795,60.08051 -110.18142,121.0471 -11.56589,32.41474 -23.55497,61.30397 -41.0756,98.97695 -14.54023,31.26447 -34.52115,70.78044 -35.78955,70.78044 -1.21138,0 -10.31695,-22.86533 -10.31695,-25.90725 0,-1.11852 5.05294,-12.42564 11.22874,-25.12692 17.89382,-36.80073 37.23524,-82.06604 50.72926,-118.72322 9.31583,-25.30692 15.02667,-37.70089 25.43262,-55.19525 18.90176,-31.77743 45.91067,-59.63127 73.31883,-75.61248 37.12208,-21.64523 114.78918,-33.41923 159.9935,-24.25436 38.28508,7.76204 76.82663,30.65446 111.23717,66.07125 22.24626,22.8968 37.71993,44.90424 51.03302,72.58179 16.65192,34.61886 22.65682,59.72778 23.95274,100.15603 1.76231,54.97811 -8.01995,78.73851 -45.18798,109.7583 -47.13863,39.3411 -127.51187,85.60937 -224.56042,129.27215 -25.82528,11.61897 -46.07995,20.20908 -47.09164,19.97183 -0.37681,-0.0884 -4.01243,-0.56737 -8.07914,-1.06446 z M 220.9347,771.53952 c -4.52009,-3.03479 -16.96829,-14.08701 -16.96829,-15.06542 0,-0.47846 8.83017,-3.76229 19.6226,-7.29743 30.71122,-10.05961 63.85757,-23.60682 92.98078,-38.00205 52.21946,-25.81141 90.19405,-51.44225 122.13558,-82.43505 28.59409,-27.74481 43.81907,-50.26462 54.37204,-80.42357 l 3.762,-10.7513 0.0221,-31.12218 0.022,-31.1222 -5.88169,-11.88301 c -10.19797,-20.60341 -25.47112,-35.66524 -47.92108,-47.25803 -22.91667,-11.8338 -41.67808,-16.37502 -67.91422,-16.43871 -25.85769,-0.0628 -39.27366,4.28471 -55.69238,18.04731 -31.93165,26.76596 -52.53742,64.8014 -105.04798,193.90422 -26.44901,65.02772 -44.29755,105.24958 -46.70475,105.24958 -1.3733,0 -14.94432,-17.91231 -14.94432,-19.72493 0,-0.70161 1.84392,-5.08084 4.0976,-9.7316 7.66352,-15.81474 24.35667,-55.40969 41.87549,-99.32561 33.8462,-84.84527 51.48472,-121.08253 75.71515,-155.55219 9.88687,-14.06485 31.10907,-35.12859 42.36621,-42.04987 20.17581,-12.4048 32.45355,-14.99235 65.72901,-13.85246 27.38061,0.93795 46.39542,5.75968 69.86764,17.71681 15.22665,7.7567 24.61805,14.6255 37.0613,27.10632 18.09004,18.14465 26.49983,34.23176 32.55784,62.28004 5.92042,27.41112 -1.61143,65.86647 -20.13113,102.78334 -10.97024,21.86795 -24.41457,38.67493 -48.82805,61.04076 -49.16798,45.04414 -105.89313,79.6644 -175.62117,107.18442 -16.31382,6.43868 -51.05308,18.72287 -52.8923,18.70331 -0.38567,-0.004 -2.02364,-0.89532 -3.63992,-1.9805 z m -1.64376,-64.83524 c -0.40442,-0.65103 2.38135,-5.36179 6.1906,-10.46837 13.83579,-18.5479 23.32144,-33.28495 28.55781,-44.36789 2.9409,-6.22444 12.14297,-29.14169 20.44909,-50.92722 8.30611,-21.78553 17.65658,-45.46669 20.77882,-52.6248 24.35481,-55.83621 45.90462,-83.02638 74.7686,-94.33822 11.19419,-4.38702 29.22873,-5.43488 42.6004,-2.47519 18.99764,4.20493 36.40584,16.68186 43.7918,31.38677 3.28877,6.54769 3.48491,7.67852 3.47869,20.05584 -0.008,16.78649 -1.26965,24.19421 -5.9541,34.97154 -14.7004,33.82056 -44.80895,67.12583 -87.36906,96.64526 -28.96268,20.08836 -75.57158,44.41928 -120.87377,63.09893 -13.64153,5.62485 -25.00096,10.22703 -25.24316,10.22703 -0.24223,0 -0.77128,-0.53266 -1.17572,-1.18368 z m 72.57898,-54.9795 c 20.99023,-10.48195 54.34867,-31.09926 71.65528,-44.28685 44.98206,-34.27616 73.63731,-73.2991 73.63731,-100.27985 0,-12.24921 -6.69921,-23.18088 -17.37682,-28.35524 -13.14509,-6.3701 -33.94279,-6.44107 -46.84724,-0.15984 -9.01611,4.38858 -21.18505,16.23785 -29.61742,28.83938 -9.3212,13.92982 -25.22179,46.5186 -36.21278,74.21925 -9.07387,22.86898 -26.92652,71.32014 -26.92652,73.07722 0,1.96139 3.44979,1.05997 11.68819,-3.05407 z M 722.68551,502.63714 c 0,-0.22563 -1.25413,-6.53654 -2.78697,-14.02426 C 704.46866,413.24 676.79668,346.18101 642.04631,299.94948 631.47812,285.88967 605.51176,259.83665 589.59312,247.32122 544.73236,212.05118 487.69694,183.88688 423.27301,165.19172 c -15.1936,-4.40904 -42.45234,-10.8385 -54.57989,-12.87367 -40.52834,-6.80119 -94.67978,-8.56497 -121.35572,-3.95272 -15.32078,2.64895 -31.59984,11.22758 -51.43233,27.10347 -29.35704,23.5003 -52.23218,48.20263 -78.02704,84.25963 -12.96833,18.12761 -11.56397,16.39661 -12.52613,15.43938 -1.27697,-1.27043 8.25452,-23.618 18.89366,-44.29814 12.73771,-24.75929 25.85707,-45.30234 35.27916,-55.24216 15.3789,-16.22392 42.74792,-35.8372 60.36729,-43.26064 19.28274,-8.12426 33.61799,-10.11589 72.2339,-10.03566 38.38722,0.0798 65.24385,2.99142 103.76446,11.24966 52.13108,11.1761 123.12787,39.16666 165.83297,65.3798 9.66704,5.9338 32.30269,22.28073 47.208,34.09251 50.89157,40.32925 86.03013,93.8809 112.12074,170.87363 l 7.31894,21.59801 -0.0106,18.10746 c -0.0158,28.24464 -2.44883,59.41509 -4.63772,59.41509 -0.57064,0 -1.03755,-0.18461 -1.03755,-0.41023 z M 621.99537,143.30535 C 561.23428,105.54895 509.06907,86.751069 425.21832,72.396183 406.72177,69.229645 360.7612,66.895215 337.05881,67.918375 c -32.54065,1.404668 -50.05184,1.648663 -50.05184,0.697384 0,-1.624907 26.88697,-12.203997 42.05747,-16.548163 25.31914,-7.250286 31.06778,-7.873476 58.8301,-6.377499 28.15192,1.516962 43.85338,3.392294 68.60618,8.194115 31.24716,6.061676 62.6441,14.997356 89.8658,25.576137 22.00084,8.549864 47.0771,26.677421 74.22461,53.656771 14.13908,14.0515 17.36013,17.96658 14.78154,17.96658 -0.47282,0 -6.49261,-3.50024 -13.3773,-7.77835 z"
     id="path83"
     inkscape:connector-curvature="0" />
</svg>
