<svg id="Ebene_1" data-name="Ebene 1" xmlns="http://www.w3.org/2000/svg" viewBox="0 0 18 18"><title>Zeichenfläche 14</title><path d="M10.23,8.6a.82.82,0,0,1-.83-.81c0-2.33,0-4.66,0-7A.75.75,0,0,1,10.2,0h7a.88.88,0,0,1,.39.09A.78.78,0,0,1,18,.87c0,2.28,0,4.55,0,6.83a.85.85,0,0,1-.91.9c-1.13,0-2.26,0-3.39,0S11.39,8.58,10.23,8.6ZM16.17,7c.18,0,.24-.06.23-.24,0-.38,0-.77,0-1.15,0-1.25,0-2.5,0-3.75,0-.19,0-.27-.25-.26H11.24c-.19,0-.25.06-.25.24q0,2.45,0,4.91c0,.21.07.25.26.25h4.91Z" style="fill-rule:evenodd"/><path d="M4.25,0C3.13,0,2,0,.9,0A.84.84,0,0,0,0,.86c0,1.75,0,3.5,0,5.25a.75.75,0,0,0,.58.78.75.75,0,0,0,.86-.32,1,1,0,0,0,.14-.48c0-1.18,0-2.35,0-3.53,0-.24,0-.48,0-.72s.07-.24.25-.24h5.7a.89.89,0,0,0,.75-.29A.78.78,0,0,0,8.43.46.74.74,0,0,0,7.71,0Z" style="fill-rule:evenodd"/><path d="M13.23,13.21H11.31a.86.86,0,0,0-.79.54.8.8,0,0,0,.24.88.91.91,0,0,0,.48.19c.94,0,1.89,0,2.83,0a.78.78,0,0,0,.77-.77c0-.69,0-1.37,0-2.08h2.26A.81.81,0,0,0,18,11a.76.76,0,0,0-.67-.63q-1.69,0-3.37,0a.8.8,0,0,0-.71.83c0,.59,0,1.18,0,1.76Z" style="fill-rule:evenodd"/><path d="M14.26,18c1,0,1.92,0,2.87,0a.83.83,0,0,0,.86-.85c0-.85,0-1.7,0-2.56a.77.77,0,0,0-.76-.83.78.78,0,0,0-.83.81c0,.53,0,1.05,0,1.58,0,.18,0,.27-.24.25H11.3a.81.81,0,0,0-.78.56.8.8,0,0,0,.42,1,1,1,0,0,0,.41.07Z" style="fill-rule:evenodd"/><path d="M5.13,5.57H7a.82.82,0,0,0,.87-.9A.78.78,0,0,0,7.1,4H4.32a.77.77,0,0,0-.79.76q0,1.4,0,2.8a.8.8,0,0,0,.8.78.82.82,0,0,0,.8-.81c0-.53,0-1.07,0-1.61C5.13,5.79,5.13,5.7,5.13,5.57Z" style="fill-rule:evenodd"/><path d="M10.91,10.34a.79.79,0,0,0-.81.79.81.81,0,1,0,1.62,0A.8.8,0,0,0,10.91,10.34Z" style="fill-rule:evenodd"/><path d="M12.54,4.3c0,.2,0,.41,0,.61a.52.52,0,0,0,.53.54h1.24a.52.52,0,0,0,.53-.53q0-.62,0-1.24a.52.52,0,0,0-.54-.53H13.08a.52.52,0,0,0-.54.54c0,.11,0,.21,0,.32S12.54,4.2,12.54,4.3Z" style="fill-rule:evenodd"/><path d="M4.32,14.82h.61a.52.52,0,0,0,.55-.53q0-.62,0-1.24A.52.52,0,0,0,5,12.52H3.71a.52.52,0,0,0-.53.54q0,.61,0,1.22a.52.52,0,0,0,.54.54Z" style="fill-rule:evenodd"/><path d="M.83,18A.82.82,0,0,1,0,17.19c0-2.33,0-4.66,0-7a.75.75,0,0,1,.8-.79h7a.88.88,0,0,1,.39.09.78.78,0,0,1,.41.77c0,2.28,0,4.56,0,6.83a.85.85,0,0,1-.91.9c-1.13,0-2.26,0-3.39,0S2,18,.83,18Zm5.93-1.6c.18,0,.24-.06.23-.24,0-.38,0-.77,0-1.15,0-1.25,0-2.5,0-3.75,0-.19,0-.27-.25-.26H1.84c-.19,0-.25.06-.25.24q0,2.45,0,4.91c0,.21.07.25.26.25H6.77Z" style="fill-rule:evenodd"/></svg>