<svg id="Ebene_1" data-name="Ebene 1" xmlns="http://www.w3.org/2000/svg" viewBox="0 0 18 18"><title>Zeichenfläche 21</title><path d="M5.64,3.32h6.72A.36.36,0,0,0,12.72,3V0H5.27V3a.36.36,0,0,0,.36.36Zm0,0"/><path d="M17.72,4.53,13.93.72V3a1.57,1.57,0,0,1-1.56,1.56H5.64A1.57,1.57,0,0,1,4.08,3V0H1.65A1.65,1.65,0,0,0,0,1.65v14.7A1.65,1.65,0,0,0,1.65,18h14.7A1.65,1.65,0,0,0,18,16.35V5.21a1,1,0,0,0-.28-.68ZM15.2,14.21a1,1,0,0,1-1,1H3.76a1,1,0,0,1-1-1v-5a1,1,0,0,1,1-1H14.24a1,1,0,0,1,1,1Zm0,0"/><path d="M13.14,9.77H4.86a.6.6,0,1,0,0,1.2h8.27a.6.6,0,0,0,0-1.2Zm0,0"/><path d="M11.94,12.17H6.06a.6.6,0,0,0,0,1.2h5.88a.6.6,0,1,0,0-1.2Zm0,0"/></svg>