<svg id="Ebene_1" data-name="Ebene 1" xmlns="http://www.w3.org/2000/svg" viewBox="0 0 23.4 18"><title>Zeichenfläche 17</title><path d="M15.91,3a7.49,7.49,0,1,0,7.49,7.49A7.49,7.49,0,0,0,15.91,3Zm0,13a5.55,5.55,0,1,1,5.55-5.55A5.55,5.55,0,0,1,15.91,16Z"/><path d="M12.41,14.72a11.6,11.6,0,0,1-4.2.74c-2.55,0-4.84-.71-5.89-1.75a11.84,11.84,0,0,0,5,1A12.37,12.37,0,0,0,11.64,14a5.5,5.5,0,0,1-1.12-4.66,9.42,9.42,0,0,1-1.09.07c-2.56,0-4.86-.72-5.9-1.77a13,13,0,0,0,3.77.53,12.86,12.86,0,0,0,3.95-.59A5.51,5.51,0,0,1,14.9,5l-.38-.21a2.14,2.14,0,0,0,.06-.5V3.79c0-1.08-.8-2.06-2.26-2.77a11.77,11.77,0,0,0-5-1,11.77,11.77,0,0,0-5,1C.8,1.73,0,2.71,0,3.79v.54c0,1.06.78,2,2.2,2.74a2.43,2.43,0,0,0-.06.5v.1C.76,8.37,0,9.33,0,10.37v.54a2.64,2.64,0,0,0,1.05,2,2.17,2.17,0,0,0-.14.76v.54c0,1.08.8,2.06,2.26,2.77a11.78,11.78,0,0,0,5,1,11.78,11.78,0,0,0,5-1,5.08,5.08,0,0,0,1.55-1.12A5.5,5.5,0,0,1,12.41,14.72ZM1.38,3.8A2.31,2.31,0,0,1,1,3.33,5.67,5.67,0,0,1,2.67,1.86,10.84,10.84,0,0,1,7.29.93a10.84,10.84,0,0,1,4.63.93,3.17,3.17,0,0,1,1.65,1.48c-.75,1.3-3.34,2.24-6.27,2.24C4.73,5.58,2.42,4.85,1.38,3.8ZM1,9.92c-.09-.62.59-.86,1.2-1.23A3.8,3.8,0,0,0,4.4,10.88a11.78,11.78,0,0,0,5,1H10a12.89,12.89,0,0,1-2.69.28C4.36,12.16,1.77,11.22,1,9.92Z"/></svg>