<svg id="Ebene_1" data-name="Ebene 1" xmlns="http://www.w3.org/2000/svg" viewBox="0 0 10.29 18"><title>Zeichenfläche 13</title><path d="M8.67,0H5C5,.27,5,.54,5,.8v0h0c0,.92,0,1.85,0,2.78S4.66,4.9,3.66,4.91H.43s-.06,0-.12,0H.12A.24.24,0,0,1,0,4.9v5.3a1.33,1.33,0,0,0,1.23,1.43l7.82,0a1.33,1.33,0,0,0,1.23-1.43V1.63A1.62,1.62,0,0,0,8.67,0ZM8.13,9.92H3.05a.57.57,0,0,1-.6-.52.57.57,0,0,1,.6-.52H8.13a.57.57,0,0,1,.6.52A.57.57,0,0,1,8.13,9.92Zm0-2.86H3.05a.57.57,0,0,1-.6-.52A.57.57,0,0,1,3.05,6H8.13a.57.57,0,0,1,.6.52A.57.57,0,0,1,8.13,7.06ZM8.35,3.8H6.58a.48.48,0,0,1-.42-.52.48.48,0,0,1,.42-.52H8.35a.48.48,0,0,1,.42.52A.48.48,0,0,1,8.35,3.8Z"/><g id="_Gruppe_" data-name="&lt;Gruppe&gt;"><g id="_Gruppe_2" data-name="&lt;Gruppe&gt;"><g id="_Gruppe_3" data-name="&lt;Gruppe&gt;"><path id="_Pfad_" data-name="&lt;Pfad&gt;" d="M5.47,17.8a.45.45,0,0,1-.75,0L.18,11a.52.52,0,1,1,.87-.57L5.12,16.5l4.14-6.09a.52.52,0,0,1,.63-.2.53.53,0,0,1,.23.77Z"/></g></g></g><g id="_Gruppe_4" data-name="&lt;Gruppe&gt;"><g id="_Gruppe_5" data-name="&lt;Gruppe&gt;"><path id="_Pfad_2" data-name="&lt;Pfad&gt;" d="M6.73,14.14s-.09.22-1.16.56a2.43,2.43,0,0,1-2.38-.88l1.87,2.92Z"/></g></g><path d="M4.34,0H4a1,1,0,0,0-.61.27C2.33,1.35,1.25,2.58.17,3.69A.49.49,0,0,0,0,4s0,.25.22.25H.39s.11,0,.1,0H3.21c.84,0,1.08-.25,1.08-1.09s0-1.57,0-2.35h0v0C4.31.53,4.32.27,4.34,0Zm-1,3.34H1.64C2,2.93,3,2.09,3.38,1.66Z"/></svg>