<svg id="Ebene_1" data-name="Ebene 1" xmlns="http://www.w3.org/2000/svg" viewBox="0 0 18 14.82"><title>Zeichenfläche 12</title><path d="M18,12V11.9s0-.08,0-.12a1.89,1.89,0,0,0-.1-.4,1.31,1.31,0,0,0-.36-.54l-.12-.09-.12-.09L17,10.48l-.24-.17-.24-.17-.49-.33-.25-.16-.25-.16-.5-.32-.51-.31L14,8.55l-.51-.3L13,8l-.52-.29L12,7.37l-.52-.28-.53-.28-.53-.28-.16.25L9.41,6.4,10.32,5,6,2.26,3.81,5.76,8.09,8.48,9,7.06l.69.57-.16.25.48.36.48.36L11,9l.48.35.49.35.49.34.49.34.49.33.5.33.5.32.25.16.25.16.51.31.26.15.26.15.26.14.13.07.13.07a1.31,1.31,0,0,0,.64.1,1.88,1.88,0,0,0,.4-.08l.11,0,.06,0,.06,0,.26-.13A2.26,2.26,0,0,0,18,12Zm0,0"/><path d="M7.29,13.11a.67.67,0,0,0-.67-.67H1.55a.67.67,0,0,0-.59,1H0v1.39H8.17V13.43h-1a.67.67,0,0,0,.08-.32Zm0,0"/><path d="M6.43,1.64l4.28,2.72a.73.73,0,0,0,1-.26l.21-.32a.73.73,0,0,0-.23-1L7.48.11a.73.73,0,0,0-1,.23L6.26.66a.73.73,0,0,0,.17,1Zm0,0"/><path d="M2.48,8l4.16,2.64a.73.73,0,0,0,1-.23l.21-.32a.73.73,0,0,0-.17-1L3.41,6.39a.73.73,0,0,0-1,.26L2.26,7a.73.73,0,0,0,.23,1Zm0,0"/></svg>