<svg id="Ebene_1" data-name="Ebene 1" xmlns="http://www.w3.org/2000/svg" viewBox="0 0 18 17.02"><title>Zeichenfläche 16</title><path d="M17.66,8.6a1,1,0,0,0-.35-.21A1,1,0,0,0,17,8.34H11.06a1,1,0,0,0-1,1v2.22a1,1,0,0,0,1,1H17a1,1,0,0,0,.32-.05,1,1,0,0,0,.35-.21,1,1,0,0,0,.32-.73V9.34a1,1,0,0,0-.32-.73Zm-4.53,2a.5.5,0,0,1-.5.5h-.33a.5.5,0,0,1-.5-.5v-.33A.49.49,0,0,1,12,9.92a.5.5,0,0,1,.31-.11h.33a.5.5,0,0,1,.5.5Zm0,0"/><path d="M4.4,3.24l7.07-1.93L11.09.55A1,1,0,0,0,9.76.1L3.43,3.24Zm0,0"/><path d="M13.82.89a1,1,0,0,0-.27,0l-1.71.47L6.61,2.82h8.52l-.32-1.17a1,1,0,0,0-1-.76Zm0,0"/><path d="M16.2,3.54H1a1,1,0,0,0-1,.76,1.06,1.06,0,0,0,0,.27V16a1,1,0,0,0,1,1H16.19a1,1,0,0,0,1-1V13.13H11.13a1.75,1.75,0,0,1-1.74-1.74V9.11a1.74,1.74,0,0,1,1.54-1.73h6.3V4.56a1,1,0,0,0-1-1Zm0,0"/></svg>